# xmcd
#
# Track frame offsets:
#	150
#	21932
#	39822
#	60540
#	77592
#	95775
#	115725
#	136712
#	152687
#	172287
#	191207
#
# Disc length: 2743 seconds
#
# Revision: 0
# Processed by: cddbd v1.5.2PL0 Copyright (c) Steve Scherf et al.
# Submitted via: EasyCDDAExtractor 12.0.4.1
#
DISCID=8b0ab50b
DTITLE=MARCO ANTONIO SOLIS - TROZOS DE MI ALMA
DYEAR=1900
DGENRE=RANCHERA
TTITLE0=SI NO TE HUBIERAS IDO
TTITLE1=AMOR EN SILENCIO
TTITLE2=SE VA MURIENDO MI ALMA
TTITLE3=MI ETERNO AMOR SECRETO
TTITLE4=SIGUE SIN MI
TTITLE5=SI TE PUDIERA MENTIR
TTITLE6=LA ULTIMA PARTE
TTITLE7=INVENTAME
TTITLE8=A QUE ME QUEDO CONTIGO
TTITLE9=EL PEOR DE MIS FRTACASOS
TTITLE10=LA VENIA BENDITA
EXTD=
EXTT0=
EXTT1=
EXTT2=
EXTT3=
EXTT4=
EXTT5=
EXTT6=
EXTT7=
EXTT8=
EXTT9=
EXTT10=
PLAYORDER=
